<?xml version="1.0" encoding="utf-8"?>
<svg width="24px" height="24px" viewBox="0 0 24 24" version="1.1" xmlns:xlink="http://www.w3.org/1999/xlink" xmlns="http://www.w3.org/2000/svg">
  <desc>Created with Lunacy</desc>
  <g id="round-person-24px-copy-3" opacity="0.4">
    <path d="M0 0L24 0L24 24L0 24L0 0Z" id="Path" fill="none" stroke="none" />
    <path d="M9 0C13.9706 0 18 4.02944 18 9C18 13.9706 13.9706 18 9 18C4.02944 18 0 13.9706 0 9C0 4.02944 4.02944 0 9 0ZM9 2C5.13401 2 2 5.13401 2 9C2 12.866 5.13401 16 9 16C12.866 16 16 12.866 16 9C16 5.13401 12.866 2 9 2ZM9 4Q9.10272 4 9.20144 4.0186Q9.30016 4.03721 9.39167 4.07381Q9.48317 4.11042 9.56449 4.16383Q9.64581 4.21724 9.71429 4.28571Q9.78276 4.35419 9.83617 4.43551Q9.88959 4.51683 9.92619 4.60834Q9.96279 4.69984 9.9814 4.79856Q10 4.89728 10 5Q10 5.10272 9.9814 5.20144Q9.96279 5.30016 9.92619 5.39167Q9.88959 5.48317 9.83617 5.56449Q9.78276 5.64581 9.71429 5.71429Q9.64581 5.78276 9.56449 5.83617Q9.48317 5.88959 9.39167 5.92619Q9.30016 5.96279 9.20144 5.9814Q9.10272 6 9 6Q8.89728 6 8.79856 5.9814Q8.69984 5.96279 8.60834 5.92619Q8.51683 5.88959 8.43551 5.83617Q8.35419 5.78276 8.28572 5.71429Q8.21724 5.64581 8.16383 5.56449Q8.11042 5.48317 8.07381 5.39167Q8.03721 5.30016 8.0186 5.20144Q8 5.10272 8 5Q8 4.89728 8.0186 4.79856Q8.03721 4.69984 8.07381 4.60834Q8.11042 4.51683 8.16383 4.43551Q8.21724 4.35419 8.28572 4.28571Q8.35419 4.21724 8.43551 4.16383Q8.51683 4.11042 8.60834 4.07381Q8.69984 4.03721 8.79856 4.0186Q8.89728 4 9 4ZM9 7Q9.10272 7 9.20144 7.0186Q9.30016 7.03721 9.39167 7.07381Q9.48317 7.11042 9.56449 7.16383Q9.64581 7.21724 9.71429 7.28571Q9.78276 7.35419 9.83617 7.43551Q9.88959 7.51683 9.92619 7.60834Q9.96279 7.69984 9.9814 7.79856Q10 7.89728 10 8L10 13Q10 13.1027 9.9814 13.2014Q9.96279 13.3002 9.92619 13.3917Q9.88959 13.4832 9.83617 13.5645Q9.78276 13.6458 9.71429 13.7143Q9.64581 13.7828 9.56449 13.8362Q9.48317 13.8896 9.39167 13.9262Q9.30016 13.9628 9.20144 13.9814Q9.10272 14 9 14Q8.89728 14 8.79856 13.9814Q8.69984 13.9628 8.60834 13.9262Q8.51683 13.8896 8.43551 13.8362Q8.35419 13.7828 8.28572 13.7143Q8.21724 13.6458 8.16383 13.5645Q8.11042 13.4832 8.07381 13.3917Q8.03721 13.3002 8.0186 13.2014Q8 13.1027 8 13L8 8Q8 7.89728 8.0186 7.79856Q8.03721 7.69984 8.07381 7.60834Q8.11042 7.51683 8.16383 7.43551Q8.21724 7.35419 8.28572 7.28571Q8.35419 7.21724 8.43551 7.16383Q8.51683 7.11042 8.60834 7.07381Q8.69984 7.03721 8.79856 7.0186Q8.89728 7 9 7Z" transform="translate(3 3)" id="Combined-Shape" fill="#FFFFFF" fill-rule="evenodd" stroke="none" />
  </g>
</svg>