<?xml version="1.0" encoding="utf-8"?>
<svg width="24px" height="24px" viewBox="0 0 24 24" version="1.1" xmlns:xlink="http://www.w3.org/1999/xlink" xmlns="http://www.w3.org/2000/svg">
  <desc>Created with Lunacy</desc>
  <g id="24px-(18)">
    <path d="M0 0L24 0L24 24L0 24L0 0Z" id="Path" fill="none" stroke="none" />
    <path d="M13 0L2 0C0.9 0 0 0.9 0 2L0 15Q0 15.1027 0.0186045 15.2014Q0.037209 15.3002 0.0738122 15.3917Q0.110415 15.4832 0.163826 15.5645Q0.217236 15.6458 0.285714 15.7143Q0.354193 15.7828 0.43551 15.8362Q0.516827 15.8896 0.608335 15.9262Q0.699843 15.9628 0.798563 15.9814Q0.897283 16 1 16Q1.10272 16 1.20144 15.9814Q1.30016 15.9628 1.39167 15.9262Q1.48317 15.8896 1.56449 15.8362Q1.64581 15.7828 1.71429 15.7143Q1.78276 15.6458 1.83617 15.5645Q1.88958 15.4832 1.92619 15.3917Q1.96279 15.3002 1.9814 15.2014Q2 15.1027 2 15L2 2L13 2Q13.1027 2 13.2014 1.9814Q13.3002 1.96279 13.3917 1.92619Q13.4832 1.88958 13.5645 1.83617Q13.6458 1.78276 13.7143 1.71429Q13.7828 1.64581 13.8362 1.56449Q13.8896 1.48317 13.9262 1.39167Q13.9628 1.30016 13.9814 1.20144Q14 1.10272 14 1Q14 0.897283 13.9814 0.798563Q13.9628 0.699843 13.9262 0.608335Q13.8896 0.516827 13.8362 0.43551Q13.7828 0.354193 13.7143 0.285714Q13.6458 0.217236 13.5645 0.163826Q13.4832 0.110415 13.3917 0.0738122Q13.3002 0.037209 13.2014 0.0186045Q13.1027 0 13 0ZM12 4L6 4C5.26362 4 4.62134 4.40334 4.27719 5L4 5L4 19L4.00071 19L4 20C4 21.1 4.89 22 5.99 22L17 22C18.1 22 19 21.1 19 20L19 11Q19 10.8973 18.9868 10.7854Q18.9737 10.6735 18.9478 10.5561Q18.9219 10.4388 18.8842 10.3197Q18.8464 10.2006 18.798 10.0837Q18.7495 9.96678 18.692 9.85587Q18.6346 9.74496 18.5698 9.64365Q18.5051 9.54235 18.4353 9.45394Q18.3655 9.36553 18.2929 9.29289L13.7071 4.70711Q13.6345 4.63447 13.5461 4.56467Q13.4577 4.49486 13.3563 4.43016Q13.255 4.36545 13.1441 4.30795Q13.0332 4.25045 12.9163 4.20203Q12.7994 4.15361 12.6803 4.11584Q12.5612 4.07808 12.4439 4.05219Q12.3265 4.02631 12.2146 4.01316Q12.1027 4 12 4ZM4.00071 19L15 19L15 10L11 10Q10.8973 10 10.7986 9.9814Q10.6998 9.96279 10.6083 9.92619Q10.5168 9.88959 10.4355 9.83617Q10.3542 9.78276 10.2857 9.71429Q10.2172 9.64581 10.1638 9.56449Q10.1104 9.48317 10.0738 9.39167Q10.0372 9.30016 10.0186 9.20144Q10 9.10272 10 9L10 5L4.27719 5C4.10725 5.29462 4.01 5.63638 4.01 6L4.00071 19Z" transform="translate(2 1)" id="Shape" fill="#FFFFFF" fill-opacity="0.4" fill-rule="evenodd" stroke="none" />
  </g>
</svg>