<?xml version="1.0" encoding="utf-8"?>
<svg width="24px" height="24px" viewBox="0 0 24 24" version="1.1" xmlns:xlink="http://www.w3.org/1999/xlink" xmlns="http://www.w3.org/2000/svg">
  <desc>Created with Lunacy</desc>
  <g id="Group-Copy-12">
    <path d="M0 0L24 0L24 24L0 24L0 0Z" id="Rectangle" fill="none" stroke="none" />
    <path d="M7.57913 19.7006C12.9369 21.0365 18.3628 17.7763 19.6984 12.4191C21.034 7.06168 17.774 1.63486 12.4166 0.299246C7.06038 -1.03637 1.6345 2.22423 0.299516 7.58198C-1.03672 12.9388 2.22356 18.365 7.57913 19.7006ZM12.2067 6.05231C13.592 6.5295 14.6051 7.2448 14.406 8.57541C14.262 9.54947 13.722 10.021 13.0051 10.1863C13.9895 10.6988 14.4904 11.4848 14.0132 12.8472C13.421 14.5394 12.0142 14.6822 10.1433 14.3282L9.68921 16.1478L8.59203 15.8744L9.04015 14.0791C8.75578 14.0085 8.46516 13.9335 8.16579 13.8522L7.7161 15.656L6.62018 15.3825L7.07424 13.5594C6.81799 13.4938 6.55768 13.4241 6.29206 13.3576L4.86426 13.0016L5.40894 11.7457C5.40894 11.7457 6.21737 11.9607 6.20643 11.9448C6.51705 12.0216 6.65486 11.8191 6.70924 11.6841L7.94048 6.74637C7.95391 6.51325 7.8736 6.21919 7.42923 6.10825C7.44642 6.09669 6.63236 5.91013 6.63236 5.91013L6.92424 4.73827L8.43735 5.11607L8.4361 5.1217C8.66359 5.17826 8.89797 5.23201 9.13671 5.28638L9.5864 3.48453L10.6829 3.75796L10.2423 5.52451C10.5367 5.59169 10.8329 5.65951 11.1214 5.73138L11.5589 3.9764L12.6561 4.24983L12.2067 6.05231ZM12.2385 8.55573C11.9549 9.69184 10.3268 9.25735 9.58037 9.05816C9.51254 9.04006 9.45199 9.0239 9.40039 9.01104L9.94664 6.82043C10.0093 6.83604 10.0859 6.85302 10.1729 6.87226C10.9457 7.04335 12.5281 7.39365 12.2385 8.55573ZM8.73636 12.5875C9.63161 12.8239 11.5882 13.3407 11.8993 12.0907C12.2181 10.8126 10.3205 10.3868 9.39452 10.179C9.29105 10.1558 9.19971 10.1353 9.12495 10.1166L8.52246 12.5319C8.58385 12.5472 8.65581 12.5662 8.73636 12.5875Z" transform="translate(2 2)" id="Combined-Shape" fill="#FF8800" fill-rule="evenodd" stroke="none" />
  </g>
</svg>