<?xml version="1.0" encoding="utf-8"?>
<svg width="17px" height="17px" viewBox="0 0 17 17" version="1.1" xmlns:xlink="http://www.w3.org/1999/xlink" xmlns="http://www.w3.org/2000/svg">
  <desc>Created with Lunacy</desc>
  <path d="M6.31594 16.4172C10.7807 17.5304 15.3023 14.8135 16.4153 10.3493C17.5283 5.88473 14.8117 1.36238 10.3472 0.249371C5.88365 -0.863638 1.36209 1.85352 0.249597 6.31832C-0.863934 10.7823 1.85297 15.3042 6.31594 16.4172ZM10.1724 5.0436C11.3268 5.44125 12.1711 6.03734 12.0052 7.14618C11.8851 7.95789 11.4351 8.35086 10.8378 8.48862C11.6581 8.9157 12.0755 9.57064 11.6779 10.706C11.1844 12.1162 10.012 12.2352 8.45288 11.9401L8.0745 13.4565L7.16019 13.2287L7.53362 11.7326C7.29665 11.6737 7.05446 11.6112 6.80499 11.5435L6.43025 13.0466L5.51698 12.8188L5.89536 11.2995C5.68182 11.2448 5.46489 11.1868 5.24354 11.1313L4.05371 10.8347L4.50761 9.78808C4.50761 9.78808 5.1813 9.96725 5.17219 9.95397C5.43104 10.018 5.54588 9.84928 5.5912 9.73678L6.61723 5.62198C6.62842 5.42771 6.5615 5.18266 6.19119 5.09021C6.20551 5.08058 5.52713 4.92511 5.52713 4.92511L5.77036 3.94856L7.03129 4.2634L7.03024 4.26809C7.21982 4.31522 7.41514 4.36001 7.61409 4.40533L7.98883 2.90378L8.90262 3.13164L8.53544 4.60376C8.78075 4.65975 9.02762 4.71626 9.26798 4.77615L9.63256 3.31367L10.5469 3.54153L10.1724 5.0436ZM10.199 7.12978C9.96263 8.07654 8.60588 7.71446 7.98386 7.54847C7.92734 7.53338 7.87688 7.51992 7.83388 7.5092L8.28908 5.6837C8.34127 5.69671 8.40518 5.71085 8.47762 5.72689C9.12163 5.86946 10.4403 6.16138 10.199 7.12978ZM7.28036 10.4896C8.02641 10.6866 9.65693 11.1173 9.91615 10.0756C10.1818 9.0105 8.60045 8.65566 7.82883 8.48252C7.74261 8.46317 7.66649 8.44609 7.6042 8.43054L7.10212 10.4433C7.15328 10.456 7.21324 10.4718 7.28036 10.4896Z" id="Combined-Shape" fill="#00FFAA" fill-rule="evenodd" stroke="none" />
</svg>