<?xml version="1.0" encoding="utf-8"?>
<svg width="26px" height="26px" viewBox="0 0 26 26" version="1.1" xmlns:xlink="http://www.w3.org/1999/xlink" xmlns="http://www.w3.org/2000/svg">
  <desc>Created with Lunacy</desc>
  <g id="24px-(13)" transform="translate(1 1)" opacity="0.4">
    <path d="M0 0L24 0L24 24L0 24L0 0Z" id="Path" fill="none" stroke="none" />
    <path d="M8.89104 0C9.34991 0 9.74989 0.312297 9.86118 0.757464L10.3269 2.61793C10.5617 2.73401 10.7879 2.86501 11.0041 3.00968L12.8494 2.48269C13.2905 2.35648 13.761 2.54673 13.9904 2.94412L15.2096 5.05588C15.4391 5.45327 15.3686 5.95581 15.0387 6.27478L13.6593 7.609C13.6676 7.73827 13.6718 7.86864 13.6718 8C13.6718 8.13136 13.6676 8.26173 13.6593 8.391L15.0387 9.72522C15.3386 10.0152 15.4241 10.4569 15.2648 10.8334L15.2096 10.9441L13.9904 13.0559C13.7818 13.4171 13.3741 13.6072 12.9702 13.544L12.8494 13.5173L11.0041 12.9903C10.7879 13.135 10.5617 13.266 10.3269 13.3821L9.86118 15.2425C9.75917 15.6506 9.41457 15.947 9.0044 15.9936L8.89104 16L6.45259 16C6.03196 16 5.66082 15.7376 5.51616 15.351L5.48245 15.2425L5.01575 13.3816C4.78133 13.2657 4.55556 13.1349 4.3397 12.9904L2.49428 13.5173C2.05311 13.6435 1.58266 13.4533 1.35323 13.0559L0.134002 10.9441C-0.0954316 10.5467 -0.0249657 10.0442 0.304914 9.72522L1.68428 8.38993C1.67602 8.26102 1.67182 8.131 1.67182 8C1.67182 7.869 1.67602 7.73898 1.68428 7.61007L0.304914 6.27478C-0.0249657 5.95581 -0.0954316 5.45327 0.134002 5.05588L1.35323 2.94412C1.58266 2.54673 2.05311 2.35648 2.49428 2.48269L4.3397 3.00956C4.55556 2.86513 4.78133 2.73434 5.01575 2.61842L5.48245 0.757464C5.59374 0.312297 5.99373 0 6.45259 0L8.89104 0ZM7.23292 2L6.73098 4.00149L5.90241 4.41121C5.74684 4.48814 5.59637 4.57522 5.45195 4.67184L4.68179 5.1871L3.79077 4.93271L2.69524 4.61993L2.25635 5.38011L3.73948 6.81585L3.68032 7.7381C3.67476 7.82488 3.67196 7.9122 3.67196 8C3.67196 8.0878 3.67476 8.17512 3.68032 8.2619L3.73948 9.18415L3.07549 9.82692L2.25635 10.6199L2.69524 11.3801L4.68179 10.8129L5.45195 11.3282C5.59637 11.4248 5.74684 11.5119 5.90241 11.5888L6.73098 11.9985L7.23292 14L8.11064 14L8.61151 11.999L9.44084 11.5891C9.5967 11.5121 9.74743 11.4249 9.89209 11.3281L10.6624 10.8127L12.6487 11.38L13.0874 10.6202L11.6042 9.18558L11.6635 8.26261C11.6691 8.1756 11.672 8.08804 11.672 8C11.672 7.91196 11.6691 7.8244 11.6635 7.73739L11.6042 6.81442L12.269 6.17143L13.0874 5.37982L12.6487 4.62L10.6624 5.1873L9.89209 4.67193C9.74743 4.57514 9.5967 4.48792 9.44084 4.41088L8.61151 4.00098L8.38688 3.10357L8.11064 2L7.23292 2ZM9.17188 8C9.17188 8.82843 8.5003 9.5 7.67188 9.5C6.84345 9.5 6.17188 8.82843 6.17188 8C6.17188 7.17157 6.84345 6.5 7.67188 6.5C8.5003 6.5 9.17188 7.17157 9.17188 8Z" transform="translate(4.328125 4)" id="Combined-Shape" fill="#FFFFFF" fill-rule="evenodd" stroke="none" />
  </g>
</svg>