<?xml version="1.0" encoding="utf-8"?>
<svg width="24px" height="24px" viewBox="0 0 24 24" version="1.1" xmlns:xlink="http://www.w3.org/1999/xlink" xmlns="http://www.w3.org/2000/svg">
  <desc>Created with Lunacy</desc>
  <g id="Group-10-Copy" opacity="0.4">
    <g id="Group-9-Copy">
      <g id="Group-8-Copy">
        <path d="M0 0L24 0L24 24L0 24L0 0Z" id="Path" fill="none" stroke="none" />
        <path d="M4 1Q4 0.897283 4.0186 0.798563Q4.03721 0.699843 4.07381 0.608335Q4.11042 0.516827 4.16383 0.43551Q4.21724 0.354193 4.28571 0.285714Q4.35419 0.217236 4.43551 0.163826Q4.51683 0.110415 4.60834 0.0738122Q4.69984 0.037209 4.79856 0.0186045Q4.89728 0 5 0L9 0Q9.10272 0 9.20144 0.0186045Q9.30016 0.037209 9.39167 0.0738122Q9.48317 0.110415 9.56449 0.163826Q9.64581 0.217236 9.71429 0.285714Q9.78276 0.354193 9.83617 0.43551Q9.88959 0.516827 9.92619 0.608335Q9.96279 0.699843 9.9814 0.798563Q10 0.897283 10 1L13 1Q13.1027 1 13.2014 1.0186Q13.3002 1.03721 13.3917 1.07381Q13.4832 1.11042 13.5645 1.16383Q13.6458 1.21724 13.7143 1.28571Q13.7828 1.35419 13.8362 1.43551Q13.8896 1.51683 13.9262 1.60833Q13.9628 1.69984 13.9814 1.79856Q14 1.89728 14 2Q14 2.10272 13.9814 2.20144Q13.9628 2.30016 13.9262 2.39167Q13.8896 2.48317 13.8362 2.56449Q13.7828 2.64581 13.7143 2.71429Q13.6458 2.78276 13.5645 2.83617Q13.4832 2.88958 13.3917 2.92619Q13.3002 2.96279 13.2014 2.9814Q13.1027 3 13 3L1 3Q0.897283 3 0.798563 2.9814Q0.699843 2.96279 0.608335 2.92619Q0.516827 2.88958 0.43551 2.83617Q0.354193 2.78276 0.285714 2.71429Q0.217236 2.64581 0.163826 2.56449Q0.110415 2.48317 0.0738122 2.39167Q0.037209 2.30016 0.0186045 2.20144Q0 2.10272 0 2Q0 1.89728 0.0186045 1.79856Q0.037209 1.69984 0.0738122 1.60833Q0.110415 1.51683 0.163826 1.43551Q0.217236 1.35419 0.285714 1.28571Q0.354193 1.21724 0.43551 1.16383Q0.516827 1.11042 0.608335 1.07381Q0.699843 1.03721 0.798563 1.0186Q0.897283 1 1 1L4 1ZM11.9258 4L2.07377 4C2.05 4 2.02624 4.00085 2.00253 4.00254C1.45165 4.04189 1.03697 4.52037 1.07631 5.07125L1.93346 17.0712C1.97084 17.5946 2.40628 18 2.93092 18L11.0687 18C11.5933 18 12.0288 17.5946 12.0661 17.0712L12.9233 5.07125C12.925 5.04754 12.9258 5.02377 12.9258 5C12.9258 4.44772 12.4781 4 11.9258 4ZM10.1378 16L3.86223 16L3.14795 6L10.852 6L10.1378 16Z" transform="translate(5 3)" id="Combined-Shape" fill="#FFFFFF" fill-rule="evenodd" stroke="none" />
      </g>
    </g>
  </g>
</svg>