<?xml version="1.0" encoding="utf-8"?>
<svg width="25px" height="25px" viewBox="0 0 25 25" version="1.1" xmlns:xlink="http://www.w3.org/1999/xlink" xmlns="http://www.w3.org/2000/svg">
  <desc>Created with Lunacy</desc>
  <g id="Group-7" transform="translate(0.5 0.5)">
    <path d="M0 0L24 0L24 24L0 24L0 0Z" id="Path" fill="none" stroke="none" />
    <path d="M6 1Q6 0.897283 6.0186 0.798563Q6.03721 0.699843 6.07381 0.608335Q6.11042 0.516827 6.16383 0.43551Q6.21724 0.354193 6.28571 0.285714Q6.35419 0.217236 6.43551 0.163826Q6.51683 0.110415 6.60834 0.0738122Q6.69984 0.037209 6.79856 0.0186045Q6.89728 0 7 0Q7.10272 0 7.20144 0.0186045Q7.30016 0.037209 7.39167 0.0738122Q7.48317 0.110415 7.56449 0.163826Q7.64581 0.217236 7.71429 0.285714Q7.78276 0.354193 7.83618 0.43551Q7.88959 0.516827 7.92619 0.608335Q7.96279 0.699843 7.9814 0.798563Q8 0.897283 8 1L8 13Q8 13.1027 7.9814 13.2014Q7.96279 13.3002 7.92619 13.3917Q7.88959 13.4832 7.83618 13.5645Q7.78276 13.6458 7.71429 13.7143Q7.64581 13.7828 7.56449 13.8362Q7.48317 13.8896 7.39167 13.9262Q7.30016 13.9628 7.20144 13.9814Q7.10272 14 7 14Q6.89728 14 6.79856 13.9814Q6.69984 13.9628 6.60834 13.9262Q6.51683 13.8896 6.43551 13.8362Q6.35419 13.7828 6.28571 13.7143Q6.21724 13.6458 6.16383 13.5645Q6.11042 13.4832 6.07381 13.3917Q6.03721 13.3002 6.01861 13.2014Q6 13.1027 6 13L6 1ZM0 6Q0 5.89728 0.0186045 5.79856Q0.037209 5.69984 0.0738122 5.60834Q0.110415 5.51683 0.163826 5.43551Q0.217236 5.35419 0.285714 5.28571Q0.354193 5.21724 0.43551 5.16383Q0.516827 5.11042 0.608335 5.07381Q0.699843 5.03721 0.798563 5.0186Q0.897283 5 1 5Q1.10272 5 1.20144 5.0186Q1.30016 5.03721 1.39167 5.07381Q1.48317 5.11042 1.56449 5.16383Q1.64581 5.21724 1.71429 5.28571Q1.78276 5.35419 1.83617 5.43551Q1.88958 5.51683 1.92619 5.60834Q1.96279 5.69984 1.9814 5.79856Q2 5.89728 2 6L2 13Q2 13.1027 1.9814 13.2014Q1.96279 13.3002 1.92619 13.3917Q1.88958 13.4832 1.83617 13.5645Q1.78276 13.6458 1.71429 13.7143Q1.64581 13.7828 1.56449 13.8362Q1.48317 13.8896 1.39167 13.9262Q1.30016 13.9628 1.20144 13.9814Q1.10272 14 1 14Q0.897283 14 0.798563 13.9814Q0.699843 13.9628 0.608335 13.9262Q0.516827 13.8896 0.43551 13.8362Q0.354193 13.7828 0.285714 13.7143Q0.217236 13.6458 0.163826 13.5645Q0.110415 13.4832 0.0738122 13.3917Q0.037209 13.3002 0.0186045 13.2014Q0 13.1027 0 13L0 6ZM12 9Q12 8.89728 12.0186 8.79856Q12.0372 8.69984 12.0738 8.60834Q12.1104 8.51683 12.1638 8.43551Q12.2172 8.35419 12.2857 8.28572Q12.3542 8.21724 12.4355 8.16383Q12.5168 8.11042 12.6083 8.07381Q12.6998 8.03721 12.7986 8.0186Q12.8973 8 13 8Q13.1027 8 13.2014 8.0186Q13.3002 8.03721 13.3917 8.07381Q13.4832 8.11042 13.5645 8.16383Q13.6458 8.21724 13.7143 8.28572Q13.7828 8.35419 13.8362 8.43551Q13.8896 8.51683 13.9262 8.60834Q13.9628 8.69984 13.9814 8.79856Q14 8.89728 14 9L14 13Q14 13.1027 13.9814 13.2014Q13.9628 13.3002 13.9262 13.3917Q13.8896 13.4832 13.8362 13.5645Q13.7828 13.6458 13.7143 13.7143Q13.6458 13.7828 13.5645 13.8362Q13.4832 13.8896 13.3917 13.9262Q13.3002 13.9628 13.2014 13.9814Q13.1027 14 13 14Q12.8973 14 12.7986 13.9814Q12.6998 13.9628 12.6083 13.9262Q12.5168 13.8896 12.4355 13.8362Q12.3542 13.7828 12.2857 13.7143Q12.2172 13.6458 12.1638 13.5645Q12.1104 13.4832 12.0738 13.3917Q12.0372 13.3002 12.0186 13.2014Q12 13.1027 12 13L12 9Z" transform="translate(5 5)" id="Combined-Shape" fill="#FFFFFF" fill-rule="evenodd" stroke="none" />
  </g>
</svg>