<?xml version="1.0" encoding="utf-8"?>
<svg width="25px" height="25px" viewBox="0 0 25 25" version="1.1" xmlns:xlink="http://www.w3.org/1999/xlink" xmlns="http://www.w3.org/2000/svg">
  <desc>Created with Lunacy</desc>
  <g id="Group-8" transform="translate(0.5 0.5)">
    <path d="M0 0L24 0L24 24L0 24L0 0Z" id="Path" fill="none" stroke="none" />
    <path d="M0 1Q0 0.897283 0.0186045 0.798563Q0.037209 0.699843 0.0738122 0.608335Q0.110415 0.516827 0.163826 0.43551Q0.217236 0.354193 0.285714 0.285714Q0.354193 0.217236 0.43551 0.163826Q0.516827 0.110415 0.608335 0.0738122Q0.699843 0.037209 0.798563 0.0186045Q0.897283 0 1 0Q1.10272 0 1.20144 0.0186045Q1.30016 0.037209 1.39167 0.0738122Q1.48317 0.110415 1.56449 0.163826Q1.64581 0.217236 1.71429 0.285714Q1.78276 0.354193 1.83617 0.43551Q1.88958 0.516827 1.92619 0.608335Q1.96279 0.699843 1.9814 0.798563Q2 0.897283 2 1Q2 1.10272 1.9814 1.20144Q1.96279 1.30016 1.92619 1.39167Q1.88958 1.48317 1.83617 1.56449Q1.78276 1.64581 1.71429 1.71429Q1.64581 1.78276 1.56449 1.83617Q1.48317 1.88958 1.39167 1.92619Q1.30016 1.96279 1.20144 1.9814Q1.10272 2 1 2Q0.897283 2 0.798563 1.9814Q0.699843 1.96279 0.608335 1.92619Q0.516827 1.88958 0.43551 1.83617Q0.354193 1.78276 0.285714 1.71429Q0.217236 1.64581 0.163826 1.56449Q0.110415 1.48317 0.0738122 1.39167Q0.037209 1.30016 0.0186045 1.20144Q0 1.10272 0 1ZM4 1Q4 0.897283 4.0186 0.798563Q4.03721 0.699843 4.07381 0.608335Q4.11042 0.516827 4.16383 0.43551Q4.21724 0.354193 4.28571 0.285714Q4.35419 0.217236 4.43551 0.163826Q4.51683 0.110415 4.60834 0.0738122Q4.69984 0.037209 4.79856 0.0186045Q4.89728 0 5 0L17 0Q17.1027 0 17.2014 0.0186045Q17.3002 0.037209 17.3917 0.0738122Q17.4832 0.110415 17.5645 0.163826Q17.6458 0.217236 17.7143 0.285714Q17.7828 0.354193 17.8362 0.43551Q17.8896 0.516827 17.9262 0.608335Q17.9628 0.699843 17.9814 0.798563Q18 0.897283 18 1Q18 1.10272 17.9814 1.20144Q17.9628 1.30016 17.9262 1.39167Q17.8896 1.48317 17.8362 1.56449Q17.7828 1.64581 17.7143 1.71429Q17.6458 1.78276 17.5645 1.83617Q17.4832 1.88958 17.3917 1.92619Q17.3002 1.96279 17.2014 1.9814Q17.1027 2 17 2L5 2Q4.89728 2 4.79856 1.9814Q4.69984 1.96279 4.60834 1.92619Q4.51683 1.88958 4.43551 1.83617Q4.35419 1.78276 4.28571 1.71429Q4.21724 1.64581 4.16383 1.56449Q4.11042 1.48317 4.07381 1.39167Q4.03721 1.30016 4.0186 1.20144Q4 1.10272 4 1ZM0 6Q0 5.89728 0.0186045 5.79856Q0.037209 5.69984 0.0738122 5.60834Q0.110415 5.51683 0.163826 5.43551Q0.217236 5.35419 0.285714 5.28571Q0.354193 5.21724 0.43551 5.16383Q0.516827 5.11042 0.608335 5.07381Q0.699843 5.03721 0.798563 5.0186Q0.897283 5 1 5Q1.10272 5 1.20144 5.0186Q1.30016 5.03721 1.39167 5.07381Q1.48317 5.11042 1.56449 5.16383Q1.64581 5.21724 1.71429 5.28571Q1.78276 5.35419 1.83617 5.43551Q1.88958 5.51683 1.92619 5.60834Q1.96279 5.69984 1.9814 5.79856Q2 5.89728 2 6Q2 6.10272 1.9814 6.20144Q1.96279 6.30016 1.92619 6.39167Q1.88958 6.48317 1.83617 6.56449Q1.78276 6.64581 1.71429 6.71429Q1.64581 6.78276 1.56449 6.83617Q1.48317 6.88959 1.39167 6.92619Q1.30016 6.96279 1.20144 6.9814Q1.10272 7 1 7Q0.897283 7 0.798563 6.9814Q0.699843 6.96279 0.608335 6.92619Q0.516827 6.88959 0.43551 6.83617Q0.354193 6.78276 0.285714 6.71429Q0.217236 6.64581 0.163826 6.56449Q0.110415 6.48317 0.0738122 6.39167Q0.037209 6.30016 0.0186045 6.20144Q0 6.10272 0 6ZM4 6Q4 5.89728 4.0186 5.79856Q4.03721 5.69984 4.07381 5.60834Q4.11042 5.51683 4.16383 5.43551Q4.21724 5.35419 4.28571 5.28571Q4.35419 5.21724 4.43551 5.16383Q4.51683 5.11042 4.60834 5.07381Q4.69984 5.03721 4.79856 5.0186Q4.89728 5 5 5L17 5Q17.1027 5 17.2014 5.0186Q17.3002 5.03721 17.3917 5.07381Q17.4832 5.11042 17.5645 5.16383Q17.6458 5.21724 17.7143 5.28571Q17.7828 5.35419 17.8362 5.43551Q17.8896 5.51683 17.9262 5.60834Q17.9628 5.69984 17.9814 5.79856Q18 5.89728 18 6Q18 6.10272 17.9814 6.20144Q17.9628 6.30016 17.9262 6.39167Q17.8896 6.48317 17.8362 6.56449Q17.7828 6.64581 17.7143 6.71429Q17.6458 6.78276 17.5645 6.83617Q17.4832 6.88959 17.3917 6.92619Q17.3002 6.96279 17.2014 6.9814Q17.1027 7 17 7L5 7Q4.89728 7 4.79856 6.9814Q4.69984 6.96279 4.60834 6.92619Q4.51683 6.88959 4.43551 6.83617Q4.35419 6.78276 4.28571 6.71429Q4.21724 6.64581 4.16383 6.56449Q4.11042 6.48317 4.07381 6.39167Q4.03721 6.30016 4.0186 6.20144Q4 6.10272 4 6ZM0 11Q0 10.8973 0.0186045 10.7986Q0.037209 10.6998 0.0738122 10.6083Q0.110415 10.5168 0.163826 10.4355Q0.217236 10.3542 0.285714 10.2857Q0.354193 10.2172 0.43551 10.1638Q0.516827 10.1104 0.608335 10.0738Q0.699843 10.0372 0.798563 10.0186Q0.897283 10 1 10Q1.10272 10 1.20144 10.0186Q1.30016 10.0372 1.39167 10.0738Q1.48317 10.1104 1.56449 10.1638Q1.64581 10.2172 1.71429 10.2857Q1.78276 10.3542 1.83617 10.4355Q1.88958 10.5168 1.92619 10.6083Q1.96279 10.6998 1.9814 10.7986Q2 10.8973 2 11Q2 11.1027 1.9814 11.2014Q1.96279 11.3002 1.92619 11.3917Q1.88958 11.4832 1.83617 11.5645Q1.78276 11.6458 1.71429 11.7143Q1.64581 11.7828 1.56449 11.8362Q1.48317 11.8896 1.39167 11.9262Q1.30016 11.9628 1.20144 11.9814Q1.10272 12 1 12Q0.897283 12 0.798563 11.9814Q0.699843 11.9628 0.608335 11.9262Q0.516827 11.8896 0.43551 11.8362Q0.354193 11.7828 0.285714 11.7143Q0.217236 11.6458 0.163826 11.5645Q0.110415 11.4832 0.0738122 11.3917Q0.037209 11.3002 0.0186045 11.2014Q0 11.1027 0 11ZM4 11Q4 10.8973 4.0186 10.7986Q4.03721 10.6998 4.07381 10.6083Q4.11042 10.5168 4.16383 10.4355Q4.21724 10.3542 4.28571 10.2857Q4.35419 10.2172 4.43551 10.1638Q4.51683 10.1104 4.60834 10.0738Q4.69984 10.0372 4.79856 10.0186Q4.89728 10 5 10L17 10Q17.1027 10 17.2014 10.0186Q17.3002 10.0372 17.3917 10.0738Q17.4832 10.1104 17.5645 10.1638Q17.6458 10.2172 17.7143 10.2857Q17.7828 10.3542 17.8362 10.4355Q17.8896 10.5168 17.9262 10.6083Q17.9628 10.6998 17.9814 10.7986Q18 10.8973 18 11Q18 11.1027 17.9814 11.2014Q17.9628 11.3002 17.9262 11.3917Q17.8896 11.4832 17.8362 11.5645Q17.7828 11.6458 17.7143 11.7143Q17.6458 11.7828 17.5645 11.8362Q17.4832 11.8896 17.3917 11.9262Q17.3002 11.9628 17.2014 11.9814Q17.1027 12 17 12L5 12Q4.89728 12 4.79856 11.9814Q4.69984 11.9628 4.60834 11.9262Q4.51683 11.8896 4.43551 11.8362Q4.35419 11.7828 4.28571 11.7143Q4.21724 11.6458 4.16383 11.5645Q4.11042 11.4832 4.07381 11.3917Q4.03721 11.3002 4.0186 11.2014Q4 11.1027 4 11Z" transform="translate(3 6)" id="Combined-Shape" fill="#FFFFFF" fill-rule="evenodd" stroke="none" />
  </g>
</svg>