<?xml version="1.0" encoding="utf-8"?>
<svg width="24px" height="24px" viewBox="0 0 24 24" version="1.1" xmlns:xlink="http://www.w3.org/1999/xlink" xmlns="http://www.w3.org/2000/svg">
  <desc>Created with Lunacy</desc>
  <g id="24px-(15)">
    <path d="M0 0L24 0L24 24L0 24L0 0Z" id="Path" fill="none" stroke="none" />
    <path d="M11.367 5.0575L16.207 5.4775C17.087 5.5475 17.437 6.6475 16.767 7.2275L13.097 10.4075L14.197 15.1375C14.397 15.9975 13.467 16.6775 12.707 16.2175L8.55696 13.7075L4.40696 16.2075C3.64696 16.6675 2.71696 15.9875 2.91696 15.1275L4.01696 10.4075L0.346957 7.2275C-0.323043 6.6475 0.0369574 5.5475 0.916957 5.4775L5.74696 5.0675L7.63696 0.6075C7.97696 -0.2025 9.13696 -0.2025 9.47696 0.6075L11.367 5.0575ZM4.79693 14.1075L8.55693 11.8375L12.3269 14.1175L11.3269 9.83751L14.6469 6.95751L10.2669 6.57751L8.55693 2.53751L6.85693 6.56751L2.47693 6.94751L5.79693 9.82751L4.79693 14.1075Z" transform="translate(3.442993 3.5625)" id="Shape" fill="#FFFFFF" fill-rule="evenodd" stroke="none" />
  </g>
</svg>