<?xml version="1.0" encoding="utf-8"?>
<svg width="24px" height="24px" viewBox="0 0 24 24" version="1.1" xmlns:xlink="http://www.w3.org/1999/xlink" xmlns="http://www.w3.org/2000/svg">
  <desc>Created with Lunacy</desc>
  <g id="round-arrow_upward-24px">
    <path d="M0 0L24 0L24 24L0 24L0 0Z" id="Path" fill="none" stroke="none" />
    <path d="M8.5925 14.5825L8.5925 3.4125L13.4725 8.2925C13.8625 8.6825 14.5025 8.6825 14.8925 8.2925C15.2825 7.9025 15.2825 7.2725 14.8925 6.8825L8.3025 0.2925C7.9125 -0.0975 7.2825 -0.0975 6.8925 0.2925L0.2925 6.8725C-0.0975 7.2625 -0.0975 7.8925 0.2925 8.2825C0.6825 8.6725 1.3125 8.6725 1.7025 8.2825L6.5925 3.4125L6.5925 14.5825C6.5925 15.1325 7.0425 15.5825 7.5925 15.5825C8.1425 15.5825 8.5925 15.1325 8.5925 14.5825Z" transform="translate(4.4075 4.4175)" id="Path" fill="#FFFFFF" stroke="none" />
  </g>
</svg>