<?xml version="1.0" encoding="utf-8"?>
<svg width="25px" height="25px" viewBox="0 0 25 25" version="1.1" xmlns:xlink="http://www.w3.org/1999/xlink" xmlns="http://www.w3.org/2000/svg">
  <desc>Created with Lunacy</desc>
  <g id="Group-3" transform="translate(0.5 0.5)">
    <path d="M0 0L24 0L24 24L0 24L0 0Z" id="Rectangle" fill="none" stroke="none" />
    <path d="M13.8846 0.923468C13.566 0.158766 12.6878 -0.20285 11.9231 0.115776L3.73292 3.52834L3.73253 3.52738L0.776113 4.75197Q0.700194 4.78342 0.626904 4.82852Q0.553615 4.87362 0.48534 4.93091Q0.417066 4.9882 0.35603 5.05582Q0.294994 5.12343 0.243183 5.19916Q0.191372 5.2749 0.150474 5.35629Q0.109575 5.43767 0.0809205 5.52207Q0.0522658 5.60647 0.036788 5.69112Q0.0213101 5.77577 0.0195129 5.85792L0.00192766 6.66179C0.000654063 6.691 7.16076e-06 6.72038 5.91178e-08 6.74991L-1.03712e-05 6.75038L1.03576e-10 6.75038L0 6.7504L0 15.7504C0 16.855 0.89543 17.7504 2 17.7504L16 17.7504C17.1046 17.7504 18 16.855 18 15.7504L18 6.7504C18 5.64583 17.1046 4.7504 16 4.7504L14 4.7504L14 1.50039C14 1.30235 13.9608 1.10627 13.8846 0.923468ZM12 2.35039L12 4.75039L6 4.75039L11.9077 2.28885Q11.9473 2.27237 11.9736 2.28995Q12 2.30753 12 2.35039ZM2 7.0504L2 15.4504Q2 15.5125 2.02214 15.5679Q2.04429 15.6233 2.08571 15.6647Q2.12714 15.7061 2.1825 15.7283Q2.23786 15.7504 2.3 15.7504L15.7 15.7504Q15.7621 15.7504 15.8175 15.7283Q15.8729 15.7061 15.9143 15.6647Q15.9557 15.6233 15.9779 15.5679Q16 15.5125 16 15.4504L16 7.0504Q16 6.98826 15.9779 6.9329Q15.9557 6.87754 15.9143 6.83611Q15.8729 6.79468 15.8175 6.77254Q15.7621 6.7504 15.7 6.7504L2.3 6.7504Q2.23786 6.7504 2.1825 6.77254Q2.12714 6.79468 2.08571 6.83611Q2.04429 6.87754 2.02214 6.9329Q2 6.98826 2 7.0504ZM13 11.2504C13 12.0788 12.3284 12.7504 11.5 12.7504C10.6716 12.7504 10 12.0788 10 11.2504C10 10.422 10.6716 9.7504 11.5 9.7504C12.3284 9.7504 13 10.422 13 11.2504Z" transform="translate(3 3.25)" id="Combined-Shape" fill="#FFFFFF" fill-rule="evenodd" stroke="none" />
  </g>
</svg>