<?xml version="1.0" encoding="utf-8"?>
<svg width="24px" height="24px" viewBox="0 0 24 24" version="1.1" xmlns:xlink="http://www.w3.org/1999/xlink" xmlns="http://www.w3.org/2000/svg">
  <desc>Created with Lunacy</desc>
  <g id="round-person-24px">
    <path d="M0 0L24 0L24 24L0 24L0 0Z" id="Path" fill="none" stroke="none" />
    <g id="Group-4" transform="translate(3 3)">
      <path d="M9 9C11.4862 9 13.5 6.98625 13.5 4.5C13.5 2.01375 11.4862 0 9 0C6.51375 0 4.5 2.01375 4.5 4.5C4.5 6.98625 6.51375 9 9 9ZM9 7C7.61832 7 6.5 5.88168 6.5 4.5C6.5 3.11832 7.61832 2 9 2C10.3817 2 11.5 3.11832 11.5 4.5C11.5 5.88168 10.3817 7 9 7ZM9 10C12.3911 10 15.5007 11.2057 17.9233 13.2118C17.9733 13.4671 18 13.7304 18 14C18 16.2091 16.2091 18 14 18L4 18C1.79086 18 0 16.2091 0 14C0 13.7301 0.0267336 13.4664 0.0776973 13.2115C2.49979 11.2055 5.60911 10 9 10ZM9 12C6.45164 12 4.02991 12.7949 2.01446 14.2417C2.1338 15.2323 2.97725 16 4 16L14 16C15.0229 16 15.8664 15.2321 15.9856 14.2414C13.9697 12.7947 11.5481 12 9 12Z" id="Combined-Shape" fill="#FFFFFF" fill-rule="evenodd" stroke="none" />
    </g>
  </g>
</svg>