<?xml version="1.0" encoding="utf-8"?>
<svg width="21px" height="21px" viewBox="0 0 21 21" version="1.1" xmlns:xlink="http://www.w3.org/1999/xlink" xmlns="http://www.w3.org/2000/svg">
  <desc>Created with Lunacy</desc>
  <g id="Group-14-Copy" transform="translate(0.5 0.5)">
    <g id="round-remove-24px-(2)-copy">
      <path d="M0 0L20 0L20 20L0 20L0 0Z" id="Path" fill="none" stroke="none" />
    </g>
    <path d="M7 5L7 1Q7 0.897283 6.9814 0.798563Q6.96279 0.699843 6.92619 0.608335Q6.88959 0.516827 6.83617 0.43551Q6.78276 0.354193 6.71429 0.285714Q6.64581 0.217236 6.56449 0.163826Q6.48317 0.110415 6.39167 0.0738122Q6.30016 0.037209 6.20144 0.0186045Q6.10272 0 6 0Q5.89728 0 5.79856 0.0186045Q5.69984 0.0372089 5.60834 0.0738122Q5.51683 0.110415 5.43551 0.163826Q5.35419 0.217236 5.28571 0.285714Q5.21724 0.354193 5.16383 0.43551Q5.11042 0.516827 5.07381 0.608335Q5.03721 0.699843 5.0186 0.798563Q5 0.897282 5 1L5 5L1 5Q0.897283 5 0.798563 5.0186Q0.699843 5.03721 0.608335 5.07381Q0.516827 5.11042 0.43551 5.16383Q0.354193 5.21724 0.285714 5.28571Q0.217236 5.35419 0.163826 5.43551Q0.110415 5.51683 0.0738122 5.60834Q0.037209 5.69984 0.0186045 5.79856Q0 5.89728 0 6Q0 6.10272 0.0186045 6.20144Q0.037209 6.30016 0.0738122 6.39167Q0.110415 6.48317 0.163826 6.56449Q0.217236 6.64581 0.285714 6.71429Q0.354193 6.78276 0.43551 6.83617Q0.516827 6.88959 0.608335 6.92619Q0.699843 6.96279 0.798563 6.9814Q0.897283 7 1 7L5 7L5 11Q5 11.1027 5.0186 11.2014Q5.03721 11.3002 5.07381 11.3917Q5.11042 11.4832 5.16383 11.5645Q5.21724 11.6458 5.28571 11.7143Q5.35419 11.7828 5.43551 11.8362Q5.51683 11.8896 5.60834 11.9262Q5.69984 11.9628 5.79856 11.9814Q5.89728 12 6 12Q6.10272 12 6.20144 11.9814Q6.30016 11.9628 6.39167 11.9262Q6.48317 11.8896 6.56449 11.8362Q6.64581 11.7828 6.71429 11.7143Q6.78276 11.6458 6.83617 11.5645Q6.88959 11.4832 6.92619 11.3917Q6.96279 11.3002 6.9814 11.2014Q7 11.1027 7 11L7 7L11 7Q11.1027 7 11.2014 6.9814Q11.3002 6.96279 11.3917 6.92619Q11.4832 6.88959 11.5645 6.83617Q11.6458 6.78276 11.7143 6.71429Q11.7828 6.64581 11.8362 6.56449Q11.8896 6.48317 11.9262 6.39167Q11.9628 6.30016 11.9814 6.20144Q12 6.10272 12 6Q12 5.89728 11.9814 5.79856Q11.9628 5.69984 11.9262 5.60834Q11.8896 5.51683 11.8362 5.43551Q11.7828 5.35419 11.7143 5.28571Q11.6458 5.21724 11.5645 5.16383Q11.4832 5.11042 11.3917 5.07381Q11.3002 5.03721 11.2014 5.0186Q11.1027 5 11 5L7 5Z" transform="translate(4 4)" id="Combined-Shape" fill="#FFFFFF" fill-opacity="1" fill-rule="evenodd" stroke="none" />
  </g>
</svg>