<?xml version="1.0" encoding="utf-8"?>
<svg width="22px" height="22px" viewBox="0 0 22 22" version="1.1" xmlns:xlink="http://www.w3.org/1999/xlink" xmlns="http://www.w3.org/2000/svg">
  <desc>Created with Lunacy</desc>
  <path d="M6.5925 1L6.5925 12.17L1.7125 7.29C1.3225 6.9 0.6825 6.9 0.2925 7.29C-0.0975 7.68 -0.0975 8.31 0.2925 8.7L6.8825 15.29C7.2725 15.68 7.9025 15.68 8.2925 15.29L14.8825 8.7C15.2725 8.31 15.2725 7.68 14.8825 7.29C14.4925 6.9 13.8625 6.9 13.4725 7.29L8.5925 12.17L8.5925 1C8.5925 0.45 8.1425 0 7.5925 0C7.0425 0 6.5925 0.45 6.5925 1Z" transform="matrix(-0.7071068 -0.7071068 0.7071068 -0.7071068 10.73022 21.74884)" id="Path" fill="#00FFAA" fill-opacity="0.6" stroke="none" />
</svg>