<svg id="Layer_1" enable-background="new 0 0 140 140" height="512" viewBox="0 0 140 140" width="512" xmlns="http://www.w3.org/2000/svg" xmlns:x="http://ns.adobe.com/Extensibility/1.0/" xmlns:i="http://ns.adobe.com/AdobeIllustrator/10.0/" xmlns:graph="http://ns.adobe.com/Graphs/1.0/"><path d="m134 70c0 3.3500977-.2599487 6.6401367-.7599487 9.8500977-4.2300415 27.4599609-25.9299927 49.1601562-53.4000244 53.3896484-3.210022.5-6.4899903.7602539-9.8400269.7602539-35.3499756 0-64-28.6499023-64-64 0-35.3398438 28.6500244-64 64-64 35.3500366 0 64 28.6601562 64 64z" fill="#fb7833"/><path d="m133.2400513 79.8500977c-4.2300415 27.4599609-25.9299927 49.1601562-53.4000244 53.3896484l-40.5999756-40.5996094-.1000366-.1000977c-2.789978-2.5200195-4.4400024-6.1401367-4.4400024-9.9897461v-.0502929l.0800171-26.3798828v-.1699219c.0300293-2.3300781.6699829-4.590332 1.8099976-6.5400391 1.159973-2.0200195 2.8300169-3.7202148 4.909973-4.9301757l.1900024-.1098633 20.3600464-11.8300781c4.1499634-2.4199219 9.2699585-2.4399414 13.4499512-.0800782.0300293.0200195.0600586.0400391.0900269.050293l22.960022 13.2597656c.0100098.0097656.0199585.0097656.0299683.0200195 1.1000366.6401367 2.0800171 1.4301758 2.9299927 2.3300781z" opacity=".1"/><path d="m103.501358 50.7371902c-1.1649857-2.0221939-2.8458786-3.7445335-4.926178-4.9512672-.0082779-.0085335-.0166092-.0085335-.0249329-.0166588l-22.9581832-13.2558021c-.0332718-.0166588-.0582581-.0333176-.0915222-.0499763-4.1772537-2.3630867-9.3030853-2.3464279-13.4470215.0751686l-20.3619766 11.8325042-.1913719.108078c-2.0802956 1.2067337-3.7528648 2.9124146-4.9095192 4.9264832-1.1399994 1.9555626-1.7807503 4.2105713-1.8140144 6.5484657v.1665878l-.0748634 26.378334v.0495682c0 4.7932129 2.5545616 9.2284775 6.6902199 11.6496658.0249367.017067.0415955.0251923.0665817.0418472l6.2908173 3.6279297 16.6673164 9.619339c2.0969543 1.214859 4.4435349 1.8141632 6.7817917 1.8141632 2.3382492-.0085297 4.6681747-.6240845 6.7567978-1.8308182l20.5533524-11.9409866c.0083237-.0081329.0166016-.0081329.0249329-.0166626 4.127327-2.413063 6.6819382-6.831665 6.6902695-11.6244736l.0748596-26.378334v-.0499725c-.0000002-2.3964081-.6407473-4.7095184-1.7973559-6.7231827z" fill="#dbd8dd"/><path d="m77.5163345 62.493309c-3.9970016 1.9401245-8.6554794 1.9754715-12.6814346.0962944l-28.2442474-13.1838836 26.2476501 17.0328407c3.9599838 2.5699005 6.451004 6.8796082 6.701088 11.5935974l1.659111 31.2694626 2.2022858-32.0276337c.3086929-4.4893036 2.6493835-8.5922012 6.3567963-11.142189l23.3359985-16.0528259z" fill="#ededed"/><path d="m70.0460281 44.2746468c-3.217598 0-5.8259964 1.6540794-5.8259964 3.694561 0 2.0400734 2.6083984 3.6941528 5.8259964 3.6941528 3.2175598 0 5.8259506-1.6540794 5.8259506-3.6941528.0000001-2.0404816-2.6083907-3.694561-5.8259506-3.694561z" fill="#304551"/><path d="m86.7479935 73.1333694c-1.8242111-.913063-4.3739319.4849014-5.6944962 3.1232986-1.3205948 2.6379776-.9120712 5.5171051.9121399 6.4301758 1.8246231.913353 4.3743515-.4846191 5.6949921-3.1226044 1.3205642-2.6383971.9119949-5.5175094-.9126358-6.43087z" fill="#4288b9"/><path d="m97.1838913 80.9981079c-1.8242111-.9130707-4.3739395.4849014-5.6944962 3.123291-1.3205948 2.6379776-.9120789 5.5171051.9121323 6.4301758 1.8246307.913353 4.3743591-.4846115 5.6949997-3.1226044 1.3205643-2.6383972.9119949-5.5175094-.9126358-6.4308624z" fill="#4288b9"/><g fill="#de594e"><path d="m56.0227165 72.3532639c1.8242111-.9130707 4.3739395.4849014 5.6945 3.123291 1.320591 2.6379776.9120712 5.5171051-.9121399 6.4301758-1.8246269.913353-4.3743553-.4846115-5.6949959-3.1226044-1.3205604-2.6383972-.9119911-5.5175095.9126358-6.4308624z"/><path d="m43.532074 80.9981079c1.8242111-.9130707 4.3739395.4849014 5.6945 3.123291 1.3205948 2.6379776.9120712 5.5171051-.9121399 6.4301758-1.8246269.913353-4.3743553-.4846115-5.6949959-3.1226044-1.3205605-2.6383972-.9119911-5.5175094.9126358-6.4308624z"/><path d="m44.0295143 67.29702c1.8242111-.9130707 4.3739395.4849014 5.6945 3.123291 1.3205948 2.6379776.912075 5.5171051-.9121399 6.4301758-1.8246269.913353-4.3743553-.4846115-5.6949959-3.1226044-1.3205604-2.6383972-.9119911-5.5175095.9126358-6.4308624z"/><path d="m54.867157 86.5096359c1.8242111-.9130707 4.3739395.4849014 5.6945 3.123291 1.3205948 2.6379776.912075 5.5171051-.9121361 6.4301758-1.8246307.913353-4.3743553-.4846115-5.6949959-3.1226044-1.3205643-2.6383972-.9119949-5.5175094.912632-6.4308624z"/></g></svg>