<svg id="Capa_1" enable-background="new 0 0 512 512" height="512" viewBox="0 0 512 512" width="512" xmlns="http://www.w3.org/2000/svg"><g><path d="m263.7 283.961c17.398-17.398 43.86-20.207 64.185-8.426l15.759-27.266v.036l10.508-18.2c4.889-8.468 11.908-14.938 19.99-19.126-.662-79.605-65.398-143.933-145.159-143.933-80.172 0-145.165 64.992-145.165 145.165s64.993 145.165 145.165 145.165c10.419 0 20.582-1.098 30.379-3.184-16.291-20.844-14.845-51.047 4.338-70.231z" fill="#ffd064"/><path d="m273.061 73.861c36.971 26.312 61.086 69.516 61.086 118.351 0 28.395-8.153 54.885-22.245 77.259 5.55 1.128 10.954 3.149 15.983 6.064l15.759-27.266v.036l10.508-18.2c4.889-8.468 11.908-14.938 19.99-19.126-.534-64.267-42.831-118.576-101.081-137.118z" fill="#ffc250"/><path d="m188.983 337.377c-15.368 0-30.177-2.389-44.078-6.814 23.724 16.884 52.741 26.814 84.078 26.814 10.419 0 20.582-1.098 30.379-3.184-6.781-8.676-10.488-18.973-11.123-29.422-18.094 8.1-38.149 12.606-59.256 12.606z" fill="#ffc250"/><path d="m263.7 283.961c17.398-17.398 43.86-20.207 64.185-8.426l13.681-23.671c4.369-12.406 6.746-25.751 6.746-39.652 0-65.904-53.426-119.33-119.33-119.33s-119.33 53.426-119.33 119.33 53.426 119.33 119.33 119.33c6.752 0 13.372-.561 19.818-1.639-2.577-16.233 2.389-33.431 14.9-45.942z" fill="#ebb044"/><path d="m248.8 329.903c-.27-1.702-.457-3.415-.562-5.132-5.923 2.652-12.056 4.918-18.368 6.767 6.445-.047 12.768-.605 18.93-1.635z" fill="#e49824"/><path d="m324.972 141.307c5.932 15.84 9.176 32.994 9.176 50.905 0 28.395-8.153 54.885-22.245 77.259 5.55 1.128 10.954 3.149 15.983 6.064l13.681-23.671c4.369-12.406 6.746-25.751 6.746-39.652 0-26.553-8.674-51.081-23.341-70.905z" fill="#e49824"/><path d="m285.246 185.312c0-21.726-17.675-39.4-39.4-39.4h-1.653v-11.029c0-6.903-5.597-12.5-12.5-12.5s-12.5 5.597-12.5 12.5v11.029h-33.973c-6.903 0-12.5 5.597-12.5 12.5s5.597 12.5 12.5 12.5h9.622v82.6h-9.622c-6.903 0-12.5 5.597-12.5 12.5s5.597 12.5 12.5 12.5h33.972v11.029c0 6.903 5.597 12.5 12.5 12.5s12.5-5.597 12.5-12.5v-11.029h1.653c21.726 0 39.4-17.675 39.4-39.4 0-10.39-4.043-19.853-10.638-26.899 6.596-7.048 10.639-16.511 10.639-26.901zm-25 0c0 7.939-6.46 14.399-14.4 14.399h-26.003v-28.8h26.003c7.94.001 14.4 6.461 14.4 14.401zm-14.401 68.2h-26.003v-28.8h26.003c7.94 0 14.4 6.46 14.4 14.399.001 7.941-6.459 14.401-14.4 14.401z" fill="#ffd064"/><path d="m421.567 212.042c-23.604-13.628-53.787-5.541-67.415 18.063l-26.267 45.429c-20.325-11.78-46.787-8.972-64.185 8.426-19.183 19.183-20.629 49.386-4.338 70.231-9.797 2.086-19.96 3.184-30.379 3.184-61.915 0-114.776-38.762-135.641-93.343v75.969c0 28.918 9.808 55.545 26.279 76.737 10.323 13.282 15.678 29.76 15.679 46.582l.004 38.329c0 1.574 1.276 2.85 2.85 2.85h160.678c1.574 0 2.85-1.276 2.85-2.85l.008-61.544c0-4.072 1.615-7.987 4.519-10.841 8.941-8.788 16.567-18.908 22.558-30.04l97.64-169.118c3.652-6.324 1.485-14.412-4.84-18.064z" fill="#ffece4"/><path d="m421.567 212.042c-10.597-6.118-22.521-7.859-33.676-5.784-.282 1.319-.772 2.617-1.483 3.849l-97.64 169.118c-3.924 7.292-8.55 14.15-13.788 20.483-8.47 10.242-13.29 23.01-13.291 36.3l-.001 4.679c-.003 24.198-19.62 43.812-43.818 43.812h-82.567l.002 17.15c0 1.574 1.276 2.85 2.85 2.85h160.678c1.574 0 2.85-1.276 2.85-2.85l.008-61.544c0-4.072 1.615-7.987 4.519-10.841 8.941-8.788 16.567-18.908 22.558-30.04l97.64-169.118c3.651-6.324 1.484-14.412-4.841-18.064z" fill="#ffddce"/><g fill="#ffece4"><path d="m217.286 67.512c-3.748-13.081-15.796-22.654-30.081-22.654-17.28 0-31.288 14.008-31.288 31.288v10.602c18.289-10.673 39.122-17.462 61.369-19.236z"/><path d="m228.983 67.047c46.617 0 88.102 21.974 114.661 56.13v-47.03c0-17.28-14.008-31.288-31.288-31.288-17.28 0-31.288 14.008-31.288 31.288v-37.359c0-17.28-14.008-31.288-31.288-31.288-17.28 0-31.288 14.008-31.288 31.288v28.633c3.465-.247 6.963-.374 10.491-.374z"/><path d="m144.739 93.979c-5.438-4.567-12.453-7.318-20.11-7.318-17.28 0-31.288 14.008-31.288 31.288v42.442c10.281-26.893 28.328-49.944 51.398-66.412z"/></g><path d="m343.644 123.177v-29.844c-16.444-15.873-35.623-27.948-56.455-35.778-3.846 5.198-6.121 11.629-6.121 18.591v-20.753c-16.584-5.492-34.12-8.346-52.085-8.346-3.523 0-7.021.111-10.49.33v20.044c3.464-.247 6.962-.374 10.49-.374 46.617 0 88.102 21.974 114.661 56.13z" fill="#ffddce"/><path d="m155.917 76.146v10.602c18.289-10.674 39.122-17.462 61.369-19.236-2.243-7.827-7.458-14.398-14.346-18.414-15.468 2.46-30.226 7.076-43.958 13.528-1.964 4.092-3.065 8.678-3.065 13.52z" fill="#ffddce"/><path d="m144.739 93.979c-5.438-4.567-12.453-7.318-20.11-7.318-1.018 0-2.024.049-3.017.144-10.693 9.168-20.204 19.678-28.271 31.265v42.32c10.281-26.892 28.328-49.943 51.398-66.411z" fill="#ffddce"/><path d="m219.842 261.012h26.003c12.076 0 21.9-9.824 21.9-21.9 0-12.075-9.824-21.899-21.9-21.899h-26.003c-4.143 0-7.5 3.357-7.5 7.5v28.8c0 4.141 3.358 7.499 7.5 7.499zm7.5-28.8h18.503c3.805 0 6.9 3.095 6.9 6.899s-3.096 6.9-6.9 6.9h-18.503z"/><path d="m219.842 207.212h26.003c12.076 0 21.9-9.824 21.9-21.899 0-12.076-9.824-21.9-21.9-21.9h-26.003c-4.143 0-7.5 3.357-7.5 7.5v28.8c0 4.141 3.358 7.499 7.5 7.499zm7.5-28.8h18.503c3.805 0 6.9 3.096 6.9 6.9s-3.096 6.899-6.9 6.899h-18.503z"/><path d="m249.781 0c-21.388 0-38.788 17.4-38.788 38.788v6.766c-6.657-5.171-14.976-8.196-23.788-8.196-21.388 0-38.787 17.4-38.787 38.788v6.435c-1.193.744-2.375 1.505-3.545 2.28-6.059-3.704-13.072-5.702-20.243-5.702-21.388 0-38.788 17.4-38.788 38.788v41.166c-12.692 34.105-12.715 72.029 0 106.196v39.356c0 4.143 3.357 7.5 7.5 7.5s7.5-3.357 7.5-7.5v-9.549c27.237 41.954 74.503 69.76 128.142 69.76 9.241 0 18.473-.832 27.507-2.475.618.676 1.253 1.341 1.907 1.995 2.93 2.929 7.679 2.93 10.606.001 2.93-2.929 2.93-7.678.001-10.606-17.79-17.791-17.79-46.737-.002-64.526 14.608-14.607 37.275-17.585 55.122-7.24 1.722.998 3.771 1.27 5.693.758 1.924-.514 3.563-1.77 4.561-3.493l26.269-45.434c11.537-19.984 37.184-26.856 57.17-15.318 2.74 1.582 3.677 5.079 2.095 7.819-23.298 40.353-97.68 169.185-97.749 169.313-5.609 10.424-12.746 19.927-21.211 28.246-4.297 4.223-6.762 10.124-6.762 16.189l-.009 56.895h-151.379l-.004-33.68c-.002-18.691-6.131-36.869-17.258-51.184-16.159-20.791-24.7-45.735-24.7-72.135v-.336c0-4.143-3.357-7.5-7.5-7.5s-7.5 3.357-7.5 7.5v.336c0 29.765 9.633 57.892 27.856 81.34 9.092 11.696 14.1 26.605 14.102 41.98l.005 38.328c0 5.707 4.643 10.35 10.35 10.35h160.678c5.707 0 10.35-4.643 10.35-10.349l.009-61.545c0-2.069.829-4.071 2.275-5.492 9.513-9.349 17.537-20.025 23.853-31.735l97.584-169.022c5.728-9.922 2.335-22.58-7.585-28.31-13.897-8.023-29.81-9.493-44.136-5.375-2.255-29.051-12.644-56.467-30.037-79.566v-44.46c0-21.388-17.4-38.788-38.788-38.788-8.958 0-17.215 3.051-23.788 8.17v-6.74c-.001-21.387-17.4-38.787-38.788-38.787zm0 15c13.116 0 23.787 10.671 23.787 23.788v27.343c-15.537-4.722-31.601-6.865-47.575-6.555v-20.788c0-13.117 10.671-23.788 23.788-23.788zm-62.576 37.358c7.357 0 14.153 3.436 18.581 8.948-14.914 2.283-29.124 6.733-42.299 13.016.935-12.268 11.215-21.964 23.718-21.964zm-86.364 65.59c0-13.117 10.671-23.788 23.788-23.788 2.228 0 4.43.314 6.545.92-11.734 9.814-21.976 21.355-30.333 34.227zm254.929 97.566c.461-18.035-2.81-35.643-9.715-52.166-1.598-3.822-5.993-5.624-9.812-4.028-3.822 1.597-5.626 5.989-4.028 9.812 5.704 13.651 8.597 28.146 8.597 43.08 0 12.527-2.052 24.815-6.102 36.536l-9.793 16.938c-12.373-5.245-25.948-6.12-38.592-2.907 9.155-15.599 8.573-35.416-2.074-50.567 5.514-7.846 8.495-17.189 8.495-26.899 0-23.882-17.941-43.651-41.054-46.538v-3.892c0-11.028-8.972-20-20-20s-20 8.972-20 20v3.529h-26.472c-11.028 0-20 8.972-20 20s8.972 20 20 20h2.122v24.192c0 4.143 3.357 7.5 7.5 7.5s7.5-3.357 7.5-7.5v-31.692c0-4.143-3.357-7.5-7.5-7.5h-9.622c-2.757 0-5-2.243-5-5s2.243-5 5-5h33.972c4.143 0 7.5-3.357 7.5-7.5v-11.029c0-2.757 2.243-5 5-5s5 2.243 5 5v11.029c0 4.143 3.357 7.5 7.5 7.5h1.653c17.59 0 31.9 14.311 31.9 31.9 0 8.106-3.06 15.839-8.614 21.774-2.698 2.884-2.698 7.366 0 10.25 5.555 5.936 8.614 13.668 8.614 21.774 0 17.59-14.311 31.9-31.9 31.9h-1.653c-4.143 0-7.5 3.357-7.5 7.5v11.029c0 2.757-2.243 5-5 5s-5-2.243-5-5v-11.029c0-4.143-3.357-7.5-7.5-7.5h-33.972c-2.757 0-5-2.243-5-5s2.243-5 5-5h9.622c4.143 0 7.5-3.357 7.5-7.5v-15.907c0-4.143-3.357-7.5-7.5-7.5s-7.5 3.357-7.5 7.5v8.407h-2.122c-11.028 0-20 8.972-20 20s8.972 20 20 20h26.472v3.529c0 11.028 8.972 20 20 20 4.02 0 7.766-1.192 10.905-3.241-1.445 5.607-2.078 11.381-1.898 17.135-3.885.404-7.804.607-11.716.607-61.663 0-111.83-50.167-111.83-111.83s50.167-111.829 111.83-111.829c33.306 0 64.644 14.694 85.979 40.315 2.651 3.186 7.381 3.614 10.562.965 3.184-2.65 3.615-7.38.965-10.562-24.193-29.055-59.733-45.718-97.506-45.718-69.935 0-126.83 56.896-126.83 126.829 0 69.935 56.896 126.83 126.83 126.83 4.683 0 9.377-.258 14.027-.77 1.019 3.568 2.371 7.059 4.055 10.426-5.978.783-12.027 1.178-18.082 1.178-75.909 0-137.665-61.756-137.665-137.665s61.756-137.662 137.665-137.662c73.833 0 134.655 58.901 137.556 132.172-3.894 2.45-7.518 5.391-10.769 8.795zm-43.414-163.156c13.117 0 23.788 10.671 23.788 23.788v27.333c-13.83-13.633-29.81-24.317-47.168-31.734 2.071-11.021 11.766-19.387 23.38-19.387z"/></g></svg>