<?xml version="1.0" encoding="utf-8"?>
<svg width="24px" height="24px" viewBox="0 0 24 24" version="1.1" xmlns:xlink="http://www.w3.org/1999/xlink" xmlns="http://www.w3.org/2000/svg">
  <desc>Created with Lunacy</desc>
  <g id="24px-(14)">
    <path d="M0 0L24 0L24 24L0 24L0 0Z" id="Path" fill="none" stroke="none" />
    <path d="M2 0L16 0C17.1 0 18 0.9 18 2L18 16C18 17.1 17.1 18 16 18L2 18C0.9 18 0 17.1 0 16L0 13C0 12.45 0.45 12 1 12C1.55 12 2 12.45 2 13L2 15C2 15.55 2.45 16 3 16L15 16C15.55 16 16 15.55 16 15L16 3C16 2.45 15.55 2 15 2L3 2C2.45 2 2 2.45 2 3L2 5C2 5.55 1.55 6 1 6C0.45 6 0 5.55 0 5L0 2C0 0.9 0.89 0 2 0ZM9.2 13.29C8.81 13.68 8.18 13.68 7.79 13.29C7.41 12.91 7.4 12.27 7.79 11.88L9.67 10L1 10C0.45 10 0 9.55 0 9C0 8.45 0.45 8 1 8L9.67 8L7.79 6.11C7.4 5.72 7.4 5.09 7.79 4.7C8.18 4.31 8.81 4.31 9.2 4.7L12.79 8.29C13.18 8.68 13.18 9.31 12.79 9.7L9.2 13.29Z" transform="translate(3 3)" id="Shape" fill="#FFFFFF" fill-opacity="0.4" fill-rule="evenodd" stroke="none" />
  </g>
</svg>