<?xml version="1.0" encoding="utf-8"?>
<svg width="24px" height="24px" viewBox="0 0 24 24" version="1.1" xmlns:xlink="http://www.w3.org/1999/xlink" xmlns="http://www.w3.org/2000/svg">
  <desc>Created with Lunacy</desc>
  <g id="Group-Copy-3">
    <path d="M0 0L24 0L24 24L0 24L0 0Z" id="Rectangle" fill="none" stroke="none" />
    <path d="M5.87701 0.0601777C6.94362 0.0115116 7.28416 0 10 0C12.7158 0 13.0564 0.0115116 14.123 0.0601777C15.1874 0.108725 15.9143 0.277786 16.5504 0.525007C17.208 0.780524 17.7656 1.12246 18.3216 1.67839C18.8775 2.23436 19.2195 2.79203 19.475 3.44962C19.7222 4.08569 19.8913 4.81263 19.9398 5.87701C19.9885 6.94362 20 7.28416 20 10C20 12.7158 19.9885 13.0564 19.9398 14.123C19.8913 15.1874 19.7222 15.9143 19.475 16.5504C19.2195 17.208 18.8775 17.7656 18.3216 18.3216C17.7656 18.8775 17.208 19.2195 16.5504 19.475C15.9143 19.7222 15.1874 19.8913 14.123 19.9398C13.0564 19.9885 12.7158 20 10 20C7.28416 20 6.94362 19.9885 5.87701 19.9398C4.81263 19.8913 4.08569 19.7222 3.44962 19.475C2.79203 19.2195 2.23436 18.8775 1.67839 18.3216C1.12246 17.7656 0.780524 17.208 0.525007 16.5504C0.277786 15.9143 0.108725 15.1874 0.0601777 14.123C0.0115116 13.0564 0 12.7158 0 10C0 7.28416 0.0115116 6.94362 0.0601777 5.87701C0.108725 4.81263 0.277786 4.08569 0.525007 3.44962C0.780524 2.79203 1.12246 2.23436 1.67839 1.67839C2.23436 1.12246 2.79203 0.780524 3.44962 0.525007C4.08569 0.277786 4.81263 0.108725 5.87701 0.0601777ZM14.0409 1.86011C12.9864 1.812 12.6701 1.8018 10 1.8018C7.32989 1.8018 7.0136 1.812 5.95914 1.86011C4.98415 1.90457 4.45466 2.06748 4.10229 2.20443C3.63551 2.38583 3.30239 2.60253 2.95248 2.95248C2.60253 3.30239 2.38583 3.63551 2.20443 4.10229C2.06748 4.45466 1.90457 4.98415 1.86011 5.95914C1.812 7.0136 1.8018 7.32989 1.8018 10C1.8018 12.6701 1.812 12.9864 1.86011 14.0409C1.90457 15.0158 2.06748 15.5453 2.20443 15.8977C2.38583 16.3645 2.60257 16.6976 2.95248 17.0475C3.30239 17.3975 3.63551 17.6142 4.10229 17.7956C4.45466 17.9325 4.98415 18.0954 5.95914 18.1399C7.01348 18.188 7.32969 18.1982 10 18.1982C12.6703 18.1982 12.9866 18.188 14.0409 18.1399C15.0158 18.0954 15.5453 17.9325 15.8977 17.7956C16.3645 17.6142 16.6976 17.3975 17.0475 17.0475C17.3975 16.6976 17.6142 16.3645 17.7956 15.8977C17.9325 15.5453 18.0954 15.0158 18.1399 14.0409C18.188 12.9864 18.1982 12.6701 18.1982 10C18.1982 7.32989 18.188 7.0136 18.1399 5.95914C18.0954 4.98415 17.9325 4.45466 17.7956 4.10229C17.6142 3.63551 17.3975 3.30239 17.0475 2.95248C16.6976 2.60253 16.3645 2.38583 15.8977 2.20443C15.5453 2.06748 15.0158 1.90457 14.0409 1.86011ZM15.338 5.86197C16.0008 5.86197 16.538 5.32474 16.538 4.66199C16.538 3.99924 16.0008 3.46197 15.338 3.46197C14.6753 3.46197 14.138 3.99924 14.138 4.66199C14.138 5.32474 14.6753 5.86197 15.338 5.86197ZM4.86487 10C4.86487 7.16393 7.16393 4.86487 10 4.86487C12.8361 4.86487 15.1351 7.16393 15.1351 10C15.1351 12.8361 12.8361 15.1351 10 15.1351C7.16393 15.1351 4.86487 12.8361 4.86487 10ZM6.66667 10C6.66667 11.841 8.15904 13.3333 10 13.3333C11.841 13.3333 13.3333 11.841 13.3333 10C13.3333 8.15904 11.841 6.66667 10 6.66667C8.15904 6.66667 6.66667 8.15904 6.66667 10Z" transform="translate(2 2)" id="Combined-Shape" fill="#FFFFFF" fill-rule="evenodd" stroke="none" />
  </g>
</svg>