<?xml version="1.0" encoding="utf-8"?>
<svg width="20px" height="20px" viewBox="0 0 20 20" version="1.1" xmlns:xlink="http://www.w3.org/1999/xlink" xmlns="http://www.w3.org/2000/svg">
  <desc>Created with Lunacy</desc>
  <g id="Group-Copy">
    <path d="M6.93013 0L13.0699 0C18.6591 0 20 1.32675 20 6.93013L20 13.0699C20 18.6733 18.6733 20 13.0699 20L6.93013 20C1.32675 20 0 18.6733 0 13.0699L0 6.93013C0 1.32675 1.32675 0 6.93013 0ZM14.693 14.2696L16.1468 14.2696C16.5561 14.2696 16.7678 14.0579 16.6267 13.6486C16.4996 13.2392 16.0198 12.6464 15.3987 11.9407C15.06 11.5455 14.5519 11.108 14.3966 10.8963C14.1849 10.614 14.2414 10.5011 14.3966 10.247C14.3966 10.247 16.175 7.73465 16.3585 6.88779C16.4573 6.57728 16.3585 6.35145 15.921 6.35145L14.4672 6.35145C14.1002 6.35145 13.9308 6.54905 13.832 6.76076C13.832 6.76076 13.084 8.5674 12.0395 9.73888C11.7008 10.0776 11.5455 10.1905 11.362 10.1905C11.2773 10.1905 11.1362 10.0776 11.1362 9.76711L11.1362 6.87368C11.1362 6.5067 11.0233 6.33733 10.7128 6.33733L8.42625 6.33733C8.20042 6.33733 8.05928 6.5067 8.05928 6.67608C8.05928 7.02893 8.58151 7.11362 8.63797 8.10162L8.63797 10.247C8.63797 10.7128 8.55328 10.7975 8.36979 10.7975C7.87579 10.7975 6.67608 8.97671 5.95625 6.90191C5.8151 6.5067 5.67396 6.33733 5.30699 6.33733L3.85321 6.33733C3.4439 6.33733 3.35921 6.53493 3.35921 6.74665C3.35921 7.14185 3.85321 9.04728 5.65984 11.5879C6.85956 13.3239 8.5674 14.2555 10.1059 14.2555C11.0374 14.2555 11.1503 14.0438 11.1503 13.6909L11.1503 12.3783C11.1503 11.9689 11.235 11.8843 11.5314 11.8843C11.7431 11.8843 12.1242 11.9972 12.9852 12.8299C13.9732 13.832 14.1426 14.2696 14.693 14.2696Z" id="Combined-Shape" fill="#FFFFFF" fill-rule="evenodd" stroke="none" />
  </g>
</svg>